<?xml version="1.0" standalone="no"?>
<!DOCTYPE svg PUBLIC "-//W3C//DTD SVG 20010904//EN"
 "http://www.w3.org/TR/2001/REC-SVG-20010904/DTD/svg10.dtd">
<svg version="1.0" xmlns="http://www.w3.org/2000/svg"
 width="252.000000pt" height="200.000000pt" viewBox="0 0 252.000000 200.000000"
 preserveAspectRatio="xMidYMid meet">

<g transform="translate(0.000000,200.000000) scale(0.100000,-0.100000)"
fill="#000000" stroke="none">
<path d="M718 1983 c283 -2 742 -2 1020 0 279 1 48 2 -513 2 -561 0 -789 -1
-507 -2z"/>
<path d="M231 1824 c0 -11 3 -14 6 -6 3 7 2 16 -1 19 -3 4 -6 -2 -5 -13z"/>
<path d="M241 1724 c0 -11 3 -14 6 -6 3 7 2 16 -1 19 -3 4 -6 -2 -5 -13z"/>
<path d="M708 1552 c-4 -11 -128 -55 -135 -48 -3 2 -16 -7 -29 -22 -18 -20
-22 -22 -17 -8 10 31 -12 11 -59 -52 -55 -72 -75 -134 -82 -247 -9 -157 25
-320 95 -455 24 -46 59 -133 59 -146 0 -5 -92 7 -122 16 -36 11 -62 -9 -94
-72 -14 -27 -21 -48 -16 -44 5 3 17 23 27 45 17 38 46 60 70 52 20 -7 110 -23
128 -22 9 0 17 -3 17 -7 0 -4 10 -23 22 -42 12 -19 20 -47 19 -62 -2 -20 2
-28 13 -28 9 0 13 -6 10 -14 -3 -8 3 -16 16 -19 12 -3 19 -10 16 -16 -4 -6 6
-24 22 -41 30 -30 55 -43 32 -15 -10 12 -10 15 4 15 9 0 16 -5 16 -10 0 -6 15
-8 39 -4 30 5 39 3 44 -10 6 -14 9 -15 21 -4 8 7 11 17 8 22 -3 5 1 5 9 0 25
-15 83 -3 109 23 13 14 26 20 28 14 2 -6 8 -9 13 -6 4 3 34 -1 66 -10 32 -9
74 -20 93 -25 19 -4 63 -22 97 -40 35 -17 67 -29 73 -25 6 4 24 32 40 63 34
66 39 50 10 -33 -11 -32 -18 -60 -16 -62 2 -2 16 32 31 77 37 112 20 123 -35
23 -31 -57 -49 -59 -121 -12 -26 16 -58 30 -71 31 -22 0 -54 11 -90 29 -10 5
-26 9 -35 9 -11 0 -3 8 17 17 19 10 40 24 46 32 6 8 18 11 28 8 10 -4 16 -1
16 8 0 7 8 16 19 20 10 3 23 15 30 28 6 12 9 14 7 5 -3 -10 -4 -18 -2 -18 8 0
46 72 46 88 0 11 30 32 88 61 146 75 237 183 264 315 13 59 2 113 -20 109 -7
-2 -12 4 -12 12 0 8 -4 15 -10 15 -5 0 -10 7 -10 14 0 8 -11 27 -25 42 -13 14
-27 34 -30 43 -10 27 -118 113 -160 128 -22 7 -75 14 -119 14 -88 1 -159 27
-188 71 -9 13 -30 39 -47 58 -17 19 -31 38 -31 42 0 13 -73 46 -137 62 -68 18
-90 20 -95 8z m152 -52 c18 -16 36 -30 40 -30 3 0 14 -16 23 -36 21 -44 14
-78 -14 -69 -45 15 -97 58 -113 96 -10 22 -20 38 -23 35 -3 -2 2 -19 11 -37 9
-18 15 -33 14 -34 -12 -9 -88 -13 -88 -5 0 5 7 10 17 10 14 0 14 2 -2 20 -16
18 -19 18 -29 4 -11 -14 -13 -14 -25 0 -7 8 -11 25 -9 38 3 23 12 26 144 36
11 1 36 -11 54 -28z m96 -125 c-3 -10 1 -15 11 -15 9 0 41 -12 71 -27 40 -20
75 -28 133 -31 44 -3 79 -8 79 -13 0 -5 8 -9 18 -9 14 -1 13 -4 -7 -20 -28
-24 -25 -25 22 -5 20 8 42 15 49 14 7 0 4 -4 -7 -9 l-20 -9 20 -2 c11 -1 29
-3 41 -4 11 -1 32 -10 47 -20 26 -16 26 -19 10 -30 -40 -28 -152 -25 -145 4 1
7 -6 9 -23 5 -19 -5 -25 -2 -25 9 0 11 -13 18 -37 23 -85 15 -147 35 -198 64
-58 33 -67 46 -53 73 11 21 22 23 14 2z m494 -222 c0 -15 2 -16 10 -3 5 8 11
12 15 9 11 -12 -32 -37 -72 -42 -24 -3 -43 -2 -43 1 0 13 15 28 40 39 36 17
50 15 50 -4z m-830 -707 c0 -3 -4 -8 -10 -11 -5 -3 -10 -1 -10 4 0 6 5 11 10
11 6 0 10 -2 10 -4z"/>
<path d="M2291 1344 c0 -11 3 -14 6 -6 3 7 2 16 -1 19 -3 4 -6 -2 -5 -13z"/>
<path d="M2229 1173 c-13 -16 -12 -17 4 -4 16 13 21 21 13 21 -2 0 -10 -8 -17
-17z"/>
<path d="M2067 949 c6 -23 9 -24 16 -5 3 8 0 17 -7 19 -10 4 -12 -1 -9 -14z"/>
<path d="M1597 851 c-4 -17 -3 -21 5 -13 5 5 8 16 6 23 -3 8 -7 3 -11 -10z"/>
<path d="M337 705 c-31 -53 -37 -75 -7 -30 24 36 26 23 5 -35 -8 -24 -14 -45
-12 -47 5 -4 32 67 46 120 13 50 2 47 -32 -8z"/>
<path d="M1969 713 c-13 -16 -12 -17 4 -4 16 13 21 21 13 21 -2 0 -10 -8 -17
-17z"/>
<path d="M285 619 c-4 -6 -5 -12 -2 -15 2 -3 7 2 10 11 7 17 1 20 -8 4z"/>
<path d="M301 549 c-6 -18 -9 -34 -7 -36 2 -2 9 10 15 28 6 18 9 34 7 36 -2 2
-9 -10 -15 -28z"/>
<path d="M276 483 c-6 -14 -5 -15 5 -6 7 7 10 15 7 18 -3 3 -9 -2 -12 -12z"/>
<path d="M286 445 c-9 -26 -7 -32 5 -12 6 10 9 21 6 23 -2 3 -7 -2 -11 -11z"/>
<path d="M280 386 c0 -2 8 -10 18 -17 15 -13 16 -12 3 4 -13 16 -21 21 -21 13z"/>
<path d="M618 363 c7 -3 16 -2 19 1 4 3 -2 6 -13 5 -11 0 -14 -3 -6 -6z"/>
<path d="M474 170 c0 -85 2 -120 3 -78 2 43 2 113 0 156 -1 42 -3 7 -3 -78z"/>
<path d="M1401 214 c-13 -9 -34 -41 -47 -70 -26 -59 -37 -69 -29 -26 5 25 5
25 -4 4 -6 -12 -7 -30 -4 -39 4 -11 3 -14 -5 -9 -8 4 -12 0 -12 -11 0 -11 -5
-24 -12 -31 -9 -9 -9 -12 3 -12 8 0 31 37 54 86 50 108 59 113 165 89 61 -14
85 -16 102 -7 21 10 19 11 -17 12 -22 0 -67 7 -100 15 -74 18 -66 18 -94 -1z"/>
<path d="M1335 180 c-4 -12 -5 -24 -2 -27 3 -2 8 5 12 17 4 12 5 24 2 27 -3 2
-8 -5 -12 -17z"/>
</g>
</svg>
