<?xml version="1.0" standalone="no"?>
<!DOCTYPE svg PUBLIC "-//W3C//DTD SVG 20010904//EN"
 "http://www.w3.org/TR/2001/REC-SVG-20010904/DTD/svg10.dtd">
<svg version="1.0" xmlns="http://www.w3.org/2000/svg"
 width="259.000000pt" height="195.000000pt" viewBox="0 0 259.000000 195.000000"
 preserveAspectRatio="xMidYMid meet">

<g transform="translate(0.000000,195.000000) scale(0.100000,-0.100000)"
fill="#000000" stroke="none">
<path d="M1576 1801 c-152 -50 -260 -177 -288 -340 -31 -182 66 -368 237 -452
67 -33 74 -34 185 -34 114 0 117 1 192 38 141 69 226 196 235 350 12 187 -79
341 -247 421 -56 26 -78 31 -160 33 -73 2 -109 -1 -154 -16z m302 -101 c70
-37 120 -89 154 -159 19 -38 23 -62 23 -146 0 -118 -20 -171 -95 -245 -217
-218 -583 -77 -598 230 -5 101 22 175 92 248 84 89 143 113 271 109 80 -3 97
-6 153 -37z"/>
<path d="M1826 1520 c-37 -22 -81 -40 -97 -40 -84 0 -129 -81 -74 -135 46 -47
119 -25 139 41 4 12 38 48 77 80 107 90 78 126 -45 54z"/>
<path d="M1037 1803 c-2 -4 -12 -31 -21 -60 -23 -68 -56 -119 -288 -433 -107
-146 -203 -280 -213 -299 -13 -27 -55 -136 -55 -146 0 -1 25 0 55 3 35 3 60 0
70 -8 8 -6 29 -56 47 -111 18 -54 35 -99 38 -99 3 0 33 56 68 125 63 127 82
148 124 137 31 -8 46 -39 115 -249 37 -112 70 -203 73 -203 3 0 44 78 92 173
94 186 103 197 177 197 20 0 46 7 57 15 48 37 124 -3 124 -65 0 -62 -76 -102
-124 -65 -11 8 -34 15 -51 15 -30 0 -33 -5 -110 -161 -95 -192 -109 -209 -165
-209 -64 0 -80 23 -146 223 -32 97 -61 177 -64 177 -3 0 -27 -43 -53 -96 -41
-81 -53 -97 -83 -110 -32 -14 -39 -13 -72 3 -33 16 -40 27 -67 101 l-30 83
-40 -3 -40 -3 2 -59 c2 -68 32 -168 74 -246 86 -162 256 -271 468 -300 182
-25 353 38 488 177 113 118 163 237 171 405 6 148 5 151 -66 166 -183 38 -348
198 -398 387 -16 57 -18 195 -5 241 8 28 4 40 -31 97 -22 36 -52 96 -67 133
-26 64 -43 85 -54 67z"/>
</g>
</svg>
